<?xml version="1.0" encoding="UTF-8" ?>
<!DOCTYPE svg PUBLIC "-//W3C//DTD SVG 1.1//EN" "http://www.w3.org/Graphics/SVG/1.1/DTD/svg11.dtd">
<svg width="187pt" height="188pt" viewBox="0 0 187 188" version="1.1" xmlns="http://www.w3.org/2000/svg">
<g id="#e8edf3ff">
</g>
<g id="#1e4b7fff">
<path fill="#1e4b7f" opacity="1.00" d=" M 69.81 8.23 C 85.33 8.34 100.85 8.28 116.37 8.28 C 116.89 17.14 119.35 25.82 123.06 33.86 C 131.64 50.64 147.44 63.84 165.88 68.23 C 169.99 69.38 174.36 69.17 178.43 70.38 C 178.15 85.77 178.34 101.18 178.33 116.57 C 168.45 117.54 158.50 119.68 149.89 124.84 C 130.41 135.35 117.51 156.47 116.40 178.50 C 100.85 178.54 85.30 178.56 69.75 178.49 C 69.17 161.42 61.00 144.98 48.51 133.48 C 37.52 123.52 23.13 117.45 8.29 116.76 C 7.51 107.91 7.77 98.94 8.11 90.06 C 7.50 83.35 8.18 76.62 8.26 69.91 C 24.47 69.32 40.06 61.95 51.40 50.46 C 62.21 39.14 69.19 23.95 69.81 8.23 M 46.20 62.22 C 40.73 66.49 34.40 69.44 28.07 72.17 C 33.56 73.90 39.09 75.49 44.50 77.47 C 45.95 77.95 47.63 79.11 49.12 78.09 C 71.73 64.56 87.08 39.93 89.83 13.79 C 84.82 13.83 79.81 13.80 74.80 13.80 C 72.90 33.07 61.93 51.05 46.20 62.22 M 95.52 13.79 C 93.33 37.41 81.39 59.87 63.09 74.95 C 60.58 77.56 57.04 79.00 54.82 81.88 C 59.25 84.49 63.83 86.88 68.06 89.83 C 81.39 80.21 91.95 66.97 99.42 52.38 C 105.48 40.52 108.72 27.47 110.68 14.37 C 105.72 13.20 100.56 14.11 95.52 13.79 M 113.66 29.34 C 112.38 35.81 110.17 42.05 107.74 48.17 C 121.10 71.22 146.00 87.58 172.64 89.83 C 172.61 85.00 172.68 80.18 172.63 75.35 C 167.47 74.61 162.42 73.28 157.51 71.56 C 138.08 64.72 122.40 48.84 115.09 29.68 C 114.73 29.60 114.02 29.43 113.66 29.34 M 101.94 59.83 C 100.48 62.94 97.87 65.46 96.93 68.81 C 112.50 89.34 135.68 104.14 161.08 108.89 C 164.90 109.60 168.76 110.15 172.63 110.54 C 172.63 105.62 172.70 100.69 172.57 95.78 C 150.27 93.56 128.88 82.82 113.94 66.07 C 110.52 62.75 108.14 58.57 104.99 55.03 C 103.29 56.06 103.02 58.28 101.94 59.83 M 93.04 73.18 C 87.10 80.53 80.47 87.43 72.94 93.16 C 79.84 99.27 86.97 105.25 92.36 112.82 C 92.74 112.77 93.51 112.65 93.89 112.60 C 99.60 105.86 105.55 99.17 112.78 94.02 C 112.80 93.20 112.51 92.55 111.92 92.05 C 104.83 86.63 98.80 79.96 93.04 73.18 M 13.56 76.35 C 13.60 81.18 13.62 86.01 13.54 90.84 C 37.31 93.33 60.07 105.22 75.14 123.85 C 77.42 126.49 79.12 129.63 81.87 131.84 C 83.67 127.21 86.61 123.15 89.30 119.01 C 89.97 117.47 88.13 116.61 87.47 115.49 C 69.51 93.20 42.20 78.35 13.56 76.35 M 13.61 96.56 C 13.58 101.49 13.55 106.43 13.57 111.37 C 28.87 113.59 43.66 120.40 54.55 131.50 C 62.31 138.96 67.59 148.51 72.05 158.21 C 73.88 152.12 75.42 145.93 78.03 140.12 C 79.22 137.80 76.83 135.97 75.77 134.17 C 62.04 113.16 38.40 99.44 13.61 96.56 M 117.32 97.40 C 93.79 115.26 78.45 143.35 75.98 172.78 C 80.85 172.85 85.71 172.79 90.58 172.79 C 92.70 154.55 99.89 136.81 111.96 122.88 C 117.54 115.83 124.74 110.37 131.87 105.01 C 128.03 102.93 124.19 100.83 120.57 98.39 C 119.61 97.78 118.53 96.93 117.32 97.40 M 137.41 108.45 C 114.58 121.87 99.38 146.59 96.36 172.77 C 101.38 172.83 106.41 172.85 111.44 172.72 C 112.99 156.96 120.91 142.13 132.09 131.06 C 139.48 123.76 148.68 118.70 158.13 114.57 C 152.42 112.67 146.59 111.12 140.98 108.93 C 139.85 108.52 138.62 108.03 137.41 108.45 Z" />
</g>
</svg>
